<?xml version="1.0" encoding="utf-8"?>
<!-- Generator: Adobe Illustrator 22.1.0, SVG Export Plug-In . SVG Version: 6.00 Build 0)  -->
<svg version="1.2" baseProfile="tiny" id="Capa_1" xmlns="http://www.w3.org/2000/svg" xmlns:xlink="http://www.w3.org/1999/xlink"
	 x="0px" y="0px" viewBox="0 0 512 512" xml:space="preserve">
<path fill="#EED9B7" d="M452.9,502.1c0,5.4-4.5,9.9-9.9,9.9c-5.6,0-10-4.4-10-10L433,10c0-5.6,4.4-10,10-10c5.4,0,9.9,4.5,9.9,9.9
	L452.9,502.1z"/>
<path fill="#EED9B7" d="M401.9,467.5c0,4.6-4.5,8.5-9.9,8.5c-5.6,0-10-3.8-10-8.6l0-422.9c0-4.8,4.4-8.6,10-8.6
	c5.4,0,9.9,3.9,9.9,8.5L401.9,467.5z"/>
<path fill="#EED9B7" d="M350.9,437.7c0,4-4.5,7.3-9.9,7.3c-5.6,0-10-3.2-10-7.4l0-363.3c0-4.1,4.4-7.4,10-7.4c5.4,0,9.9,3.3,9.9,7.3
	L350.9,437.7z"/>
<path fill="#EED9B7" d="M299.9,406.9c0,3.3-4.5,6.1-9.9,6.1c-5.6,0-10-2.7-10-6.1l0-301.8c0-3.4,4.4-6.1,10-6.1
	c5.4,0,9.9,2.8,9.9,6.1L299.9,406.9z"/>
<path fill="#EED9B7" d="M248.9,376.2c0,2.6-4.5,4.8-9.9,4.8c-5.6,0-10-2.1-10-4.9l0-240.3c0-2.7,4.4-4.9,10-4.9
	c5.4,0,9.9,2.2,9.9,4.8L248.9,376.2z"/>
<path fill="#EED9B7" d="M197.9,340.1c0,1.8-4.5,3.4-9.9,3.4c-5.6,0-10-1.5-10-3.4l0-168.2c0-1.9,4.4-3.4,10-3.4
	c5.4,0,9.9,1.5,9.9,3.4L197.9,340.1z"/>
<path fill="#EED9B7" d="M146.9,304.1c0,1.1-4.5,1.9-9.9,1.9c-5.6,0-10-0.9-10-1.9l0-96.1c0-1.1,4.4-1.9,10-1.9
	c5.4,0,9.9,0.9,9.9,1.9L146.9,304.1z"/>
<path fill="#EED9B7" d="M95.9,275.2c0,0.4-4.5,0.8-9.9,0.8c-5.6,0-10-0.3-10-0.8l0-38.4c0-0.4,4.4-0.8,10-0.8c5.4,0,9.9,0.4,9.9,0.8
	L95.9,275.2z"/>
</svg>
