<?xml version="1.0" encoding="utf-8"?>
<!-- Generator: Adobe Illustrator 22.1.0, SVG Export Plug-In . SVG Version: 6.00 Build 0)  -->
<svg version="1.1" id="Capa_1" xmlns="http://www.w3.org/2000/svg" xmlns:xlink="http://www.w3.org/1999/xlink" x="0px" y="0px"
	 viewBox="0 0 512 512" style="enable-background:new 0 0 512 512;" xml:space="preserve">
<style type="text/css">
	.st0{fill:#EED9B7;}
</style>
<path class="st0" d="M76.1,9.9c0-5.4,4.5-9.9,9.9-9.9c5.6,0,10,4.4,10,10V502c0,5.6-4.4,10-10,10c-5.4,0-9.9-4.5-9.9-9.9V9.9z"/>
<path class="st0" d="M127.1,44.5c0-4.6,4.5-8.5,9.9-8.5c5.6,0,10,3.8,10,8.6v422.9c0,4.8-4.4,8.6-10,8.6c-5.4,0-9.9-3.9-9.9-8.5
	V44.5z"/>
<path class="st0" d="M178.1,74.3c0-4,4.5-7.3,9.9-7.3c5.6,0,10,3.2,10,7.4v363.3c0,4.1-4.4,7.4-10,7.4c-5.4,0-9.9-3.3-9.9-7.3V74.3z
	"/>
<path class="st0" d="M229.1,105.1c0-3.3,4.5-6.1,9.9-6.1c5.6,0,10,2.7,10,6.1v301.8c0,3.4-4.4,6.1-10,6.1c-5.4,0-9.9-2.8-9.9-6.1
	V105.1z"/>
<path class="st0" d="M280.1,135.8c0-2.6,4.5-4.8,9.9-4.8c5.6,0,10,2.1,10,4.9v240.3c0,2.7-4.4,4.9-10,4.9c-5.4,0-9.9-2.2-9.9-4.8
	V135.8z"/>
<path class="st0" d="M331.1,171.9c0-1.8,4.5-3.4,9.9-3.4c5.6,0,10,1.5,10,3.4v168.2c0,1.9-4.4,3.4-10,3.4c-5.4,0-9.9-1.5-9.9-3.4
	V171.9z"/>
<path class="st0" d="M382.1,207.9c0-1.1,4.5-1.9,9.9-1.9c5.6,0,10,0.9,10,1.9v96.1c0,1.1-4.4,1.9-10,1.9c-5.4,0-9.9-0.9-9.9-1.9
	V207.9z"/>
<path class="st0" d="M433.1,236.8c0-0.4,4.5-0.8,9.9-0.8c5.6,0,10,0.3,10,0.8v38.4c0,0.4-4.4,0.8-10,0.8c-5.4,0-9.9-0.4-9.9-0.8
	V236.8z"/>
</svg>
