<?xml version="1.0" encoding="utf-8"?>
<!-- Generator: Adobe Illustrator 22.1.0, SVG Export Plug-In . SVG Version: 6.00 Build 0)  -->
<svg version="1.1" id="Capa_1" xmlns="http://www.w3.org/2000/svg" xmlns:xlink="http://www.w3.org/1999/xlink" x="0px" y="0px"
	 viewBox="0 0 512 512" style="enable-background:new 0 0 512 512;" xml:space="preserve">
<style type="text/css">
	.st0{fill:#EED9B7;}
</style>
<path class="st0" d="M342.3,502.1c0,5.4-4.5,9.9-9.9,9.9c-5.6,0-10-4.4-10-10V10c0-5.6,4.4-10,10-10c5.4,0,9.9,4.5,9.9,9.9V502.1z"
	/>
<path class="st0" d="M291.4,467.5c0,4.6-4.5,8.5-9.9,8.5c-5.6,0-10-3.8-10-8.6V44.5c0-4.8,4.4-8.6,10-8.6c5.4,0,9.9,3.9,9.9,8.5
	V467.5z"/>
<path class="st0" d="M240.5,428.8c0,3.8-4.5,7.1-9.9,7.1c-5.6,0-10-3.2-10-7.2V75.1c0-4,4.4-7.2,10-7.2c5.4,0,9.9,3.3,9.9,7.1V428.8
	z"/>
</svg>
